# xmcd
#
# Track frame offsets:
#	150
#	15099
#	31608
#	49239
#	63379
#	95546
#	106863
#	127244
#	149234
#
# Disc length: 2251 seconds
#
# Revision: 0
# Processed by: cddbd v1.5.2PL0 Copyright (c) Steve Scherf et al.
# Submitted via: audiograbber 1.83.01
#
DISCID=7708c909
DTITLE=Boogie Blues Band - Ain't Stoppin' Till You Dance
DYEAR=2009
DGENRE=Boogie Blues
TTITLE0=Boogie Blues Band
TTITLE1=Jeg Vil Nyde Livet Nu
TTITLE2=You Make Me Feel Alive
TTITLE3=De Gode Gamle Dage
TTITLE4=Vodka On The Rocks
TTITLE5=Play That Shuffle
TTITLE6=Byen Groover
TTITLE7=Ain't Stoppin' Till You Dance
TTITLE8=Boogie Blues Blues
EXTD=Johannes Ettrup    Leadsang and Saxophon\nToke Stryhn          Piano and Backr
EXTD=ound\nKaspar Fredriksen Bas and Backround\nPhilipp Brodersen  Drums and Backro
EXTD=und\n\nwww.boogiebluesband.dk
EXTT0=Music and Lyrics: Toke Stryhn
EXTT1=Music and Lyrics: Toke Stryhn
EXTT2=Music and Lyrics: Johannes Ettrup
EXTT3=Music: Johannes Ettrup\nLyrics: Johannes Ettrup and Jonas A. Jeppesen
EXTT4=Music and Lyrics: Toke Stryhn
EXTT5=Music and Lyrics: Toke Stryhn
EXTT6=Music and Lyrics: Philipp Brodersen
EXTT7=Music and Lyrics: Johannes Ettrup
EXTT8=Music and Lyrics: Kaspar Frederiksen
PLAYORDER=
